<svg xmlns="http://www.w3.org/2000/svg" width="1200" height="660" viewBox="0 0 1200 660" font-family="Segoe UI, Helvetica, Arial, sans-serif"><rect width="1200" height="660" fill="#FAFAF8"/><defs>
<marker id="arrowE" markerWidth="11" markerHeight="9" refX="10" refY="4.5" orient="auto">
  <polygon points="0 0, 11 4.5, 0 9" fill="#374151"/>
</marker>
<marker id="dotS" markerWidth="8" markerHeight="8" refX="4" refY="4">
  <circle cx="4" cy="4" r="3.2" fill="#374151"/>
</marker>
<filter id="shadow" x="-10%" y="-10%" width="130%" height="130%">
  <feDropShadow dx="0" dy="2" stdDeviation="2.5" flood-opacity="0.12"/>
</filter>
</defs><text x="600.0" y="42" font-family="Segoe UI, Helvetica, Arial, sans-serif" font-size="26" font-weight="800" fill="#111827" text-anchor="middle">Muster 2: Edge-Gateway</text><text x="600.0" y="68" font-family="Segoe UI, Helvetica, Arial, sans-serif" font-size="15" font-weight="400" fill="#6B7280" text-anchor="middle">Basis-Muster — Retrofit mit Gateway als einzigem Übergabepunkt</text><rect x="50" y="100" width="500" height="430" rx="14" fill="#FFF6EA" stroke="#E8890C" stroke-width="2.5"/><text x="68" y="130" font-family="Segoe UI, Helvetica, Arial, sans-serif" font-size="17" font-weight="700" fill="#9A5B08" letter-spacing="1">OT  ·  PRODUKTIONSHALLE</text><rect x="700" y="100" width="450" height="430" rx="14" fill="#EAF2FD" stroke="#2563EB" stroke-width="2.5"/><text x="718" y="130" font-family="Segoe UI, Helvetica, Arial, sans-serif" font-size="17" font-weight="700" fill="#1E4FA3" letter-spacing="1">IT  ·  BÜRONETZ / SERVERRAUM</text><rect x="90" y="170" width="200" height="100" rx="10" fill="#FFFFFF" stroke="#374151" stroke-width="2" filter="url(#shadow)"/><text x="190.0" y="216.0" font-family="Segoe UI, Helvetica, Arial, sans-serif" font-size="16" font-weight="600" fill="#111827" text-anchor="middle">Alte Maschine</text><text x="190.0" y="236.0" font-family="Segoe UI, Helvetica, Arial, sans-serif" font-size="12.5" fill="#6B7280" text-anchor="middle">Fräse, Bj. 2009</text><rect x="120" y="300" width="140" height="60" rx="10" fill="#FFFFFF" stroke="#374151" stroke-width="2" filter="url(#shadow)"/><text x="190.0" y="326.0" font-family="Segoe UI, Helvetica, Arial, sans-serif" font-size="16" font-weight="600" fill="#111827" text-anchor="middle">Stromsensor</text><text x="190.0" y="346.0" font-family="Segoe UI, Helvetica, Arial, sans-serif" font-size="12.5" fill="#6B7280" text-anchor="middle">Klemme, nicht-invasiv</text><rect x="340" y="220" width="170" height="110" rx="10" fill="#FFFFFF" stroke="#374151" stroke-width="2" filter="url(#shadow)"/><text x="425.0" y="271.0" font-family="Segoe UI, Helvetica, Arial, sans-serif" font-size="16" font-weight="600" fill="#111827" text-anchor="middle">Edge-Gateway</text><text x="425.0" y="291.0" font-family="Segoe UI, Helvetica, Arial, sans-serif" font-size="12.5" fill="#6B7280" text-anchor="middle">Raspberry Pi / IPC</text><line x1="190" y1="270" x2="190" y2="297" stroke="#374151" stroke-width="2.5" marker-end="url(#arrowE)"/><text x="200" y="288" font-family="Segoe UI, Helvetica, Arial, sans-serif" font-size="11.5" font-weight="400" fill="#6B7280" text-anchor="start">Zuleitung</text><line x1="260" y1="320" x2="340" y2="290" stroke="#374151" stroke-width="2.5" marker-end="url(#arrowE)"/><rect x="247.2" y="283.0" width="105.60000000000001" height="19" rx="4" fill="#FFFFFF" opacity="0.92"/><text x="300.0" y="296.0" font-family="Segoe UI, Helvetica, Arial, sans-serif" font-size="12.5" font-weight="600" fill="#374151" text-anchor="middle">analog / GPIO</text><rect x="597.0" y="278.0" width="56" height="74" rx="5" fill="#B91C1C"/><rect x="598.5" y="279.5" width="22.0" height="11.8" rx="2" fill="#EF4444"/><rect x="626.5" y="279.5" width="22.0" height="11.8" rx="2" fill="#EF4444"/><rect x="598.5" y="294.3" width="8.0" height="11.8" rx="2" fill="#EF4444"/><rect x="612.5" y="294.3" width="22.0" height="11.8" rx="2" fill="#EF4444"/><rect x="640.5" y="294.3" width="11.0" height="11.8" rx="2" fill="#EF4444"/><rect x="598.5" y="309.1" width="22.0" height="11.8" rx="2" fill="#EF4444"/><rect x="626.5" y="309.1" width="22.0" height="11.8" rx="2" fill="#EF4444"/><rect x="598.5" y="323.9" width="8.0" height="11.8" rx="2" fill="#EF4444"/><rect x="612.5" y="323.9" width="22.0" height="11.8" rx="2" fill="#EF4444"/><rect x="640.5" y="323.9" width="11.0" height="11.8" rx="2" fill="#EF4444"/><rect x="598.5" y="338.7" width="22.0" height="11.8" rx="2" fill="#EF4444"/><rect x="626.5" y="338.7" width="22.0" height="11.8" rx="2" fill="#EF4444"/><text x="625" y="372.0" font-family="Segoe UI, Helvetica, Arial, sans-serif" font-size="13" font-weight="700" fill="#B91C1C" text-anchor="middle">Firewall</text><rect x="740" y="170" width="180" height="90" rx="10" fill="#FFFFFF" stroke="#374151" stroke-width="2" filter="url(#shadow)"/><text x="830.0" y="211.0" font-family="Segoe UI, Helvetica, Arial, sans-serif" font-size="16" font-weight="600" fill="#111827" text-anchor="middle">MQTT-Broker</text><text x="830.0" y="231.0" font-family="Segoe UI, Helvetica, Arial, sans-serif" font-size="12.5" fill="#6B7280" text-anchor="middle">Mosquitto / HiveMQ</text><rect x="960" y="170" width="160" height="90" rx="10" fill="#FFFFFF" stroke="#374151" stroke-width="2" filter="url(#shadow)"/><text x="1040.0" y="211.0" font-family="Segoe UI, Helvetica, Arial, sans-serif" font-size="16" font-weight="600" fill="#111827" text-anchor="middle">Dashboard</text><text x="1040.0" y="231.0" font-family="Segoe UI, Helvetica, Arial, sans-serif" font-size="12.5" fill="#6B7280" text-anchor="middle">Grafana o. ä.</text><rect x="740" y="330" width="180" height="90" rx="10" fill="#FFFFFF" stroke="#374151" stroke-width="2" filter="url(#shadow)"/><text x="830.0" y="371.0" font-family="Segoe UI, Helvetica, Arial, sans-serif" font-size="16" font-weight="600" fill="#111827" text-anchor="middle">Datenbank</text><text x="830.0" y="391.0" font-family="Segoe UI, Helvetica, Arial, sans-serif" font-size="12.5" fill="#6B7280" text-anchor="middle">Zeitreihen (InfluxDB)</text><rect x="960" y="330" width="160" height="90" rx="10" fill="#FFFFFF" stroke="#374151" stroke-width="2" filter="url(#shadow)"/><text x="1040.0" y="371.0" font-family="Segoe UI, Helvetica, Arial, sans-serif" font-size="16" font-weight="600" fill="#111827" text-anchor="middle">MES / ERP</text><text x="1040.0" y="391.0" font-family="Segoe UI, Helvetica, Arial, sans-serif" font-size="12.5" fill="#6B7280" text-anchor="middle">Auftragsdaten</text><line x1="510" y1="265" x2="597" y2="265" stroke="#374151" stroke-width="2.5" marker-end="url(#arrowE)"/><line x1="653" y1="265" x2="738" y2="230" stroke="#374151" stroke-width="2.5" marker-end="url(#arrowE)"/><rect x="563.5" y="220.5" width="264.0" height="19" rx="4" fill="#FFFFFF" opacity="0.92"/><text x="695.5" y="233.5" font-family="Segoe UI, Helvetica, Arial, sans-serif" font-size="12.5" font-weight="600" fill="#374151" text-anchor="middle">MQTT über TLS (8883), nur ausgehend</text><line x1="920" y1="215" x2="957" y2="215" stroke="#374151" stroke-width="2.5" marker-end="url(#arrowE)"/><line x1="830" y1="260" x2="830" y2="327" stroke="#374151" stroke-width="2.5" marker-end="url(#arrowE)"/><line x1="920" y1="375" x2="957" y2="375" stroke="#374151" stroke-width="2.5" marker-end="url(#arrowE)"/><text x="600" y="565" font-family="Segoe UI, Helvetica, Arial, sans-serif" font-size="15" font-weight="700" fill="#16A34A" text-anchor="middle">Genau EIN definierter Übergang: Gateway → Broker. Die Maschine selbst hängt in keinem Netz.</text><text x="600" y="590" font-family="Segoe UI, Helvetica, Arial, sans-serif" font-size="13.5" font-weight="400" fill="#6B7280" text-anchor="middle" font-style="italic">Datenrichtung ausschließlich OT → IT (lesend). Kein Rückkanal zur Steuerung.</text></svg>