<svg xmlns="http://www.w3.org/2000/svg" width="1200" height="660" viewBox="0 0 1200 660" font-family="Segoe UI, Helvetica, Arial, sans-serif"><rect width="1200" height="660" fill="#FAFAF8"/><defs>
<marker id="arrowE" markerWidth="11" markerHeight="9" refX="10" refY="4.5" orient="auto">
  <polygon points="0 0, 11 4.5, 0 9" fill="#374151"/>
</marker>
<marker id="dotS" markerWidth="8" markerHeight="8" refX="4" refY="4">
  <circle cx="4" cy="4" r="3.2" fill="#374151"/>
</marker>
<filter id="shadow" x="-10%" y="-10%" width="130%" height="130%">
  <feDropShadow dx="0" dy="2" stdDeviation="2.5" flood-opacity="0.12"/>
</filter>
</defs><text x="600.0" y="42" font-family="Segoe UI, Helvetica, Arial, sans-serif" font-size="26" font-weight="800" fill="#111827" text-anchor="middle">Muster 4: Cloud-Anbindung</text><text x="600.0" y="68" font-family="Segoe UI, Helvetica, Arial, sans-serif" font-size="15" font-weight="400" fill="#6B7280" text-anchor="middle">Gateway publiziert direkt in eine Cloud-IoT-Plattform — kein eigener Broker-Betrieb</text><rect x="50" y="100" width="460" height="430" rx="14" fill="#FFF6EA" stroke="#E8890C" stroke-width="2.5"/><text x="68" y="130" font-family="Segoe UI, Helvetica, Arial, sans-serif" font-size="17" font-weight="700" fill="#9A5B08" letter-spacing="1">OT  ·  STANDORT / FILIALE</text><rect x="700" y="100" width="450" height="430" rx="14" fill="#F5EEFC" stroke="#7C3AED" stroke-width="2.5"/><text x="718" y="130" font-family="Segoe UI, Helvetica, Arial, sans-serif" font-size="17" font-weight="700" fill="#5B21B6" letter-spacing="1">CLOUD  ·  z. B. AWS</text><rect x="85" y="170" width="170" height="90" rx="10" fill="#FFFFFF" stroke="#374151" stroke-width="2" filter="url(#shadow)"/><text x="170.0" y="211.0" font-family="Segoe UI, Helvetica, Arial, sans-serif" font-size="16" font-weight="600" fill="#111827" text-anchor="middle">Maschine A</text><text x="170.0" y="231.0" font-family="Segoe UI, Helvetica, Arial, sans-serif" font-size="12.5" fill="#6B7280" text-anchor="middle">+ Sensor</text><rect x="85" y="290" width="170" height="90" rx="10" fill="#FFFFFF" stroke="#374151" stroke-width="2" filter="url(#shadow)"/><text x="170.0" y="331.0" font-family="Segoe UI, Helvetica, Arial, sans-serif" font-size="16" font-weight="600" fill="#111827" text-anchor="middle">Maschine B</text><text x="170.0" y="351.0" font-family="Segoe UI, Helvetica, Arial, sans-serif" font-size="12.5" fill="#6B7280" text-anchor="middle">+ Sensor</text><rect x="310" y="225" width="170" height="110" rx="10" fill="#FFFFFF" stroke="#374151" stroke-width="2" filter="url(#shadow)"/><text x="395.0" y="276.0" font-family="Segoe UI, Helvetica, Arial, sans-serif" font-size="16" font-weight="600" fill="#111827" text-anchor="middle">Edge-Gateway</text><text x="395.0" y="296.0" font-family="Segoe UI, Helvetica, Arial, sans-serif" font-size="12.5" fill="#6B7280" text-anchor="middle">puffert bei Ausfall</text><line x1="255" y1="215" x2="307" y2="255" stroke="#374151" stroke-width="2.5" marker-end="url(#arrowE)"/><line x1="255" y1="335" x2="307" y2="305" stroke="#374151" stroke-width="2.5" marker-end="url(#arrowE)"/><rect x="562.0" y="263.0" width="56" height="74" rx="5" fill="#B91C1C"/><rect x="563.5" y="264.5" width="22.0" height="11.8" rx="2" fill="#EF4444"/><rect x="591.5" y="264.5" width="22.0" height="11.8" rx="2" fill="#EF4444"/><rect x="563.5" y="279.3" width="8.0" height="11.8" rx="2" fill="#EF4444"/><rect x="577.5" y="279.3" width="22.0" height="11.8" rx="2" fill="#EF4444"/><rect x="605.5" y="279.3" width="11.0" height="11.8" rx="2" fill="#EF4444"/><rect x="563.5" y="294.1" width="22.0" height="11.8" rx="2" fill="#EF4444"/><rect x="591.5" y="294.1" width="22.0" height="11.8" rx="2" fill="#EF4444"/><rect x="563.5" y="308.9" width="8.0" height="11.8" rx="2" fill="#EF4444"/><rect x="577.5" y="308.9" width="22.0" height="11.8" rx="2" fill="#EF4444"/><rect x="605.5" y="308.9" width="11.0" height="11.8" rx="2" fill="#EF4444"/><rect x="563.5" y="323.7" width="22.0" height="11.8" rx="2" fill="#EF4444"/><rect x="591.5" y="323.7" width="22.0" height="11.8" rx="2" fill="#EF4444"/><text x="590" y="357.0" font-family="Segoe UI, Helvetica, Arial, sans-serif" font-size="13" font-weight="700" fill="#B91C1C" text-anchor="middle">Perimeter-FW</text><rect x="740" y="170" width="190" height="90" rx="10" fill="#FFFFFF" stroke="#374151" stroke-width="2" filter="url(#shadow)"/><text x="835.0" y="211.0" font-family="Segoe UI, Helvetica, Arial, sans-serif" font-size="16" font-weight="600" fill="#111827" text-anchor="middle">IoT Core / Broker</text><text x="835.0" y="231.0" font-family="Segoe UI, Helvetica, Arial, sans-serif" font-size="12.5" fill="#6B7280" text-anchor="middle">managed MQTT</text><rect x="970" y="170" width="150" height="90" rx="10" fill="#FFFFFF" stroke="#374151" stroke-width="2" filter="url(#shadow)"/><text x="1045.0" y="211.0" font-family="Segoe UI, Helvetica, Arial, sans-serif" font-size="16" font-weight="600" fill="#111827" text-anchor="middle">Regeln / Alarme</text><text x="1045.0" y="231.0" font-family="Segoe UI, Helvetica, Arial, sans-serif" font-size="12.5" fill="#6B7280" text-anchor="middle">CloudWatch etc.</text><rect x="740" y="330" width="190" height="90" rx="10" fill="#FFFFFF" stroke="#374151" stroke-width="2" filter="url(#shadow)"/><text x="835.0" y="371.0" font-family="Segoe UI, Helvetica, Arial, sans-serif" font-size="16" font-weight="600" fill="#111827" text-anchor="middle">Storage</text><text x="835.0" y="391.0" font-family="Segoe UI, Helvetica, Arial, sans-serif" font-size="12.5" fill="#6B7280" text-anchor="middle">S3 / Timestream</text><rect x="970" y="330" width="150" height="90" rx="10" fill="#FFFFFF" stroke="#374151" stroke-width="2" filter="url(#shadow)"/><text x="1045.0" y="371.0" font-family="Segoe UI, Helvetica, Arial, sans-serif" font-size="16" font-weight="600" fill="#111827" text-anchor="middle">Dashboards</text><text x="1045.0" y="391.0" font-family="Segoe UI, Helvetica, Arial, sans-serif" font-size="12.5" fill="#6B7280" text-anchor="middle">weltweit abrufbar</text><line x1="480" y1="280" x2="562" y2="280" stroke="#374151" stroke-width="2.5" marker-end="url(#arrowE)"/><line x1="618" y1="280" x2="738" y2="225" stroke="#374151" stroke-width="2.5" marker-end="url(#arrowE)"/><rect x="506.4" y="225.5" width="343.2" height="19" rx="4" fill="#FFFFFF" opacity="0.92"/><text x="678.0" y="238.5" font-family="Segoe UI, Helvetica, Arial, sans-serif" font-size="12.5" font-weight="600" fill="#374151" text-anchor="middle">MQTT/TLS 8883, X.509-Zertifikat, nur ausgehend</text><line x1="930" y1="215" x2="967" y2="215" stroke="#374151" stroke-width="2.5" marker-end="url(#arrowE)"/><line x1="835" y1="260" x2="835" y2="327" stroke="#374151" stroke-width="2.5" marker-end="url(#arrowE)"/><line x1="930" y1="375" x2="967" y2="375" stroke="#374151" stroke-width="2.5" marker-end="url(#arrowE)"/><text x="600" y="565" font-family="Segoe UI, Helvetica, Arial, sans-serif" font-size="15" font-weight="700" fill="#16A34A" text-anchor="middle">Keine eingehenden Ports am Standort — das Gateway baut die Verbindung von innen nach außen auf.</text><text x="600" y="590" font-family="Segoe UI, Helvetica, Arial, sans-serif" font-size="13.5" font-weight="400" fill="#6B7280" text-anchor="middle" font-style="italic">Abhängigkeiten: Internetleitung und Cloud-Anbieter. Ohne Puffer im Gateway = Datenverlust bei Leitungsausfall.</text></svg>