<svg xmlns="http://www.w3.org/2000/svg" width="1200" height="680" viewBox="0 0 1200 680" font-family="Segoe UI, Helvetica, Arial, sans-serif"><rect width="1200" height="680" fill="#FAFAF8"/><defs>
<marker id="arrowE" markerWidth="11" markerHeight="9" refX="10" refY="4.5" orient="auto">
  <polygon points="0 0, 11 4.5, 0 9" fill="#374151"/>
</marker>
<marker id="dotS" markerWidth="8" markerHeight="8" refX="4" refY="4">
  <circle cx="4" cy="4" r="3.2" fill="#374151"/>
</marker>
<filter id="shadow" x="-10%" y="-10%" width="130%" height="130%">
  <feDropShadow dx="0" dy="2" stdDeviation="2.5" flood-opacity="0.12"/>
</filter>
</defs><text x="600.0" y="42" font-family="Segoe UI, Helvetica, Arial, sans-serif" font-size="26" font-weight="800" fill="#111827" text-anchor="middle">Muster 3: Segmentierung mit Industrie-DMZ</text><text x="600.0" y="68" font-family="Segoe UI, Helvetica, Arial, sans-serif" font-size="15" font-weight="400" fill="#6B7280" text-anchor="middle">Erweitertes Muster — Broker in der Pufferzone, keine Zone spricht direkt mit der übernächsten</text><rect x="40" y="100" width="330" height="440" rx="14" fill="#FFF6EA" stroke="#E8890C" stroke-width="2.5"/><text x="58" y="130" font-family="Segoe UI, Helvetica, Arial, sans-serif" font-size="17" font-weight="700" fill="#9A5B08" letter-spacing="1">OT-ZONE</text><rect x="450" y="100" width="300" height="440" rx="14" fill="#F2F2F2" stroke="#6B7280" stroke-width="2.5"/><text x="468" y="130" font-family="Segoe UI, Helvetica, Arial, sans-serif" font-size="17" font-weight="700" fill="#4B5563" letter-spacing="1">INDUSTRIE-DMZ</text><rect x="830" y="100" width="330" height="440" rx="14" fill="#EAF2FD" stroke="#2563EB" stroke-width="2.5"/><text x="848" y="130" font-family="Segoe UI, Helvetica, Arial, sans-serif" font-size="17" font-weight="700" fill="#1E4FA3" letter-spacing="1">IT-ZONE</text><rect x="75" y="165" width="120" height="80" rx="10" fill="#FFFFFF" stroke="#374151" stroke-width="2" filter="url(#shadow)"/><text x="135.0" y="201.0" font-family="Segoe UI, Helvetica, Arial, sans-serif" font-size="16" font-weight="600" fill="#111827" text-anchor="middle">Maschine 1</text><text x="135.0" y="221.0" font-family="Segoe UI, Helvetica, Arial, sans-serif" font-size="12.5" fill="#6B7280" text-anchor="middle">SPS</text><rect x="215" y="165" width="120" height="80" rx="10" fill="#FFFFFF" stroke="#374151" stroke-width="2" filter="url(#shadow)"/><text x="275.0" y="201.0" font-family="Segoe UI, Helvetica, Arial, sans-serif" font-size="16" font-weight="600" fill="#111827" text-anchor="middle">Maschine 2</text><text x="275.0" y="221.0" font-family="Segoe UI, Helvetica, Arial, sans-serif" font-size="12.5" fill="#6B7280" text-anchor="middle">SPS</text><rect x="115" y="300" width="180" height="100" rx="10" fill="#FFFFFF" stroke="#374151" stroke-width="2" filter="url(#shadow)"/><text x="205.0" y="346.0" font-family="Segoe UI, Helvetica, Arial, sans-serif" font-size="16" font-weight="600" fill="#111827" text-anchor="middle">Edge-Gateway</text><text x="205.0" y="366.0" font-family="Segoe UI, Helvetica, Arial, sans-serif" font-size="12.5" fill="#6B7280" text-anchor="middle">sammelt &amp; übersetzt</text><line x1="135" y1="245" x2="175" y2="297" stroke="#374151" stroke-width="2.5" marker-end="url(#arrowE)"/><line x1="275" y1="245" x2="235" y2="297" stroke="#374151" stroke-width="2.5" marker-end="url(#arrowE)"/><rect x="495" y="230" width="210" height="100" rx="10" fill="#FFFFFF" stroke="#374151" stroke-width="2" filter="url(#shadow)"/><text x="600.0" y="276.0" font-family="Segoe UI, Helvetica, Arial, sans-serif" font-size="16" font-weight="600" fill="#111827" text-anchor="middle">MQTT-Broker</text><text x="600.0" y="296.0" font-family="Segoe UI, Helvetica, Arial, sans-serif" font-size="12.5" fill="#6B7280" text-anchor="middle">zentraler Übergabepunkt</text><rect x="495" y="390" width="210" height="70" rx="10" fill="#FFFFFF" stroke="#374151" stroke-width="2" filter="url(#shadow)"/><text x="600.0" y="421.0" font-family="Segoe UI, Helvetica, Arial, sans-serif" font-size="16" font-weight="600" fill="#111827" text-anchor="middle">Jump-Host</text><text x="600.0" y="441.0" font-family="Segoe UI, Helvetica, Arial, sans-serif" font-size="12.5" fill="#6B7280" text-anchor="middle">Wartungszugriff, MFA</text><rect x="865" y="165" width="260" height="80" rx="10" fill="#FFFFFF" stroke="#374151" stroke-width="2" filter="url(#shadow)"/><text x="995.0" y="210.0" font-family="Segoe UI, Helvetica, Arial, sans-serif" font-size="16" font-weight="600" fill="#111827" text-anchor="middle">Dashboard / Monitoring</text><rect x="865" y="280" width="260" height="80" rx="10" fill="#FFFFFF" stroke="#374151" stroke-width="2" filter="url(#shadow)"/><text x="995.0" y="325.0" font-family="Segoe UI, Helvetica, Arial, sans-serif" font-size="16" font-weight="600" fill="#111827" text-anchor="middle">Datenbank / Analytics</text><rect x="865" y="395" width="260" height="80" rx="10" fill="#FFFFFF" stroke="#374151" stroke-width="2" filter="url(#shadow)"/><text x="995.0" y="440.0" font-family="Segoe UI, Helvetica, Arial, sans-serif" font-size="16" font-weight="600" fill="#111827" text-anchor="middle">MES / ERP</text><rect x="382.0" y="263.0" width="56" height="74" rx="5" fill="#B91C1C"/><rect x="383.5" y="264.5" width="22.0" height="11.8" rx="2" fill="#EF4444"/><rect x="411.5" y="264.5" width="22.0" height="11.8" rx="2" fill="#EF4444"/><rect x="383.5" y="279.3" width="8.0" height="11.8" rx="2" fill="#EF4444"/><rect x="397.5" y="279.3" width="22.0" height="11.8" rx="2" fill="#EF4444"/><rect x="425.5" y="279.3" width="11.0" height="11.8" rx="2" fill="#EF4444"/><rect x="383.5" y="294.1" width="22.0" height="11.8" rx="2" fill="#EF4444"/><rect x="411.5" y="294.1" width="22.0" height="11.8" rx="2" fill="#EF4444"/><rect x="383.5" y="308.9" width="8.0" height="11.8" rx="2" fill="#EF4444"/><rect x="397.5" y="308.9" width="22.0" height="11.8" rx="2" fill="#EF4444"/><rect x="425.5" y="308.9" width="11.0" height="11.8" rx="2" fill="#EF4444"/><rect x="383.5" y="323.7" width="22.0" height="11.8" rx="2" fill="#EF4444"/><rect x="411.5" y="323.7" width="22.0" height="11.8" rx="2" fill="#EF4444"/><text x="410" y="357.0" font-family="Segoe UI, Helvetica, Arial, sans-serif" font-size="13" font-weight="700" fill="#B91C1C" text-anchor="middle">FW 1</text><rect x="762.0" y="263.0" width="56" height="74" rx="5" fill="#B91C1C"/><rect x="763.5" y="264.5" width="22.0" height="11.8" rx="2" fill="#EF4444"/><rect x="791.5" y="264.5" width="22.0" height="11.8" rx="2" fill="#EF4444"/><rect x="763.5" y="279.3" width="8.0" height="11.8" rx="2" fill="#EF4444"/><rect x="777.5" y="279.3" width="22.0" height="11.8" rx="2" fill="#EF4444"/><rect x="805.5" y="279.3" width="11.0" height="11.8" rx="2" fill="#EF4444"/><rect x="763.5" y="294.1" width="22.0" height="11.8" rx="2" fill="#EF4444"/><rect x="791.5" y="294.1" width="22.0" height="11.8" rx="2" fill="#EF4444"/><rect x="763.5" y="308.9" width="8.0" height="11.8" rx="2" fill="#EF4444"/><rect x="777.5" y="308.9" width="22.0" height="11.8" rx="2" fill="#EF4444"/><rect x="805.5" y="308.9" width="11.0" height="11.8" rx="2" fill="#EF4444"/><rect x="763.5" y="323.7" width="22.0" height="11.8" rx="2" fill="#EF4444"/><rect x="791.5" y="323.7" width="22.0" height="11.8" rx="2" fill="#EF4444"/><text x="790" y="357.0" font-family="Segoe UI, Helvetica, Arial, sans-serif" font-size="13" font-weight="700" fill="#B91C1C" text-anchor="middle">FW 2</text><line x1="295" y1="330" x2="382" y2="285" stroke="#374151" stroke-width="2.5" marker-end="url(#arrowE)"/><line x1="438" y1="285" x2="492" y2="280" stroke="#374151" stroke-width="2.5" marker-end="url(#arrowE)"/><rect x="412.2" y="257.5" width="105.60000000000001" height="19" rx="4" fill="#FFFFFF" opacity="0.92"/><text x="465.0" y="270.5" font-family="Segoe UI, Helvetica, Arial, sans-serif" font-size="12.5" font-weight="600" fill="#374151" text-anchor="middle">publish (TLS)</text><line x1="762" y1="285" x2="862" y2="230" stroke="#374151" stroke-width="2.5" marker-end="url(#arrowE)"/><rect x="773.6" y="232.5" width="76.8" height="19" rx="4" fill="#FFFFFF" opacity="0.92"/><text x="812.0" y="245.5" font-family="Segoe UI, Helvetica, Arial, sans-serif" font-size="12.5" font-weight="600" fill="#374151" text-anchor="middle">subscribe</text><line x1="818" y1="300" x2="862" y2="315" stroke="#374151" stroke-width="2.5" marker-end="url(#arrowE)"/><text x="600" y="575" font-family="Segoe UI, Helvetica, Arial, sans-serif" font-size="15" font-weight="700" fill="#16A34A" text-anchor="middle">Zwei Firewalls, zwei Regelwerke: OT → DMZ nur Port 8883 ausgehend · IT → DMZ nur subscribe.</text><text x="600" y="600" font-family="Segoe UI, Helvetica, Arial, sans-serif" font-size="13.5" font-weight="400" fill="#6B7280" text-anchor="middle" font-style="italic">Kompromittierte IT erreicht die OT nicht direkt — die DMZ ist die Sollbruchstelle. Vorbild: Purdue-Modell / IEC 62443.</text></svg>